<?xml version="1.0" encoding="UTF-8" standalone="no"?>
<svg width="120px" height="120px" viewBox="0 0 120 120" version="1.1" xmlns="http://www.w3.org/2000/svg" xmlns:xlink="http://www.w3.org/1999/xlink" xmlns:sketch="http://www.bohemiancoding.com/sketch/ns">
    <!-- Generator: Sketch 3.1.1 (8761) - http://www.bohemiancoding.com/sketch -->
    <title>Oval 1 + Group</title>
    <desc>Created with Sketch.</desc>
    <defs></defs>
    <g id="Page-1" stroke="none" stroke-width="1" fill="none" fill-rule="evenodd" sketch:type="MSPage">
        <g id="Oval-1-+-Group" sketch:type="MSLayerGroup">
            <circle id="Oval-1" fill="#7C2A15" sketch:type="MSShapeGroup" cx="60" cy="60" r="60"></circle>
            <g id="Group" transform="translate(33.000000, 20.000000)" sketch:type="MSShapeGroup">
                <g id="Path-3-+-Path-4" transform="translate(28.028518, 35.372022) rotate(11.000000) translate(-28.028518, -35.372022) translate(16.550257, 1.328544)">
                    <path d="M7.01947949,22.2181424 C7.0194795,14.0988634 3.987282,12.1636956 2.95219339,10.9515647 C2.8003359,10.7737334 -2.06872651,6.95352572 1.17096777,2.59603329 C4.41066204,-1.76145914 9.20444369,0.48265013 10.5407353,1.17105282 C10.8469069,1.3287799 11.2661152,1.40565727 11.7360547,1.42248662 C12.012375,1.38251491 12.258191,1.31426246 12.456558,1.21207195 C13.7928495,0.523669258 18.5866312,-1.72044001 21.8263255,2.63705242 C25.0660197,6.99454484 20.1969573,10.8147525 20.0450998,10.9925838 C19.0100112,12.2047147 15.9778137,14.1398825 15.9778137,22.2591615 C15.9778137,23.6471763 15.996155,32.810145 15.9778144,34.0641144 L7.07888661,34.0641144 C7.06018583,32.7981786 7.01947948,23.6213021 7.01947949,22.2181424 Z" id="Path-3" fill="#F0EFC6"></path>
                    <path d="M6.97870801,56.2616207 C6.97870802,48.1423417 3.94651052,46.2071739 2.91142191,44.995043 C2.75956442,44.8172117 -2.10949798,40.997004 1.13019629,36.6395116 C4.36989056,32.2820191 9.16367221,34.5261284 10.4999638,35.2145311 C10.8061354,35.3722582 11.2253438,35.4491355 11.6952833,35.4659649 C11.9716035,35.4259932 12.2174196,35.3577407 12.4157865,35.2555502 C13.7520781,34.5671475 18.5458597,32.3230383 21.785554,36.6805307 C25.0252482,41.0380231 20.1561858,44.8582308 20.0043283,45.0360621 C18.9692397,46.248193 15.9370422,48.1833608 15.9370423,56.3026398 C15.9370423,57.6906546 15.9553835,66.8536233 15.937043,68.1075927 L7.03811513,68.1075927 C7.01941435,66.8416569 6.978708,57.6647803 6.97870801,56.2616207 Z" id="Path-4" fill="#8DFF9F" transform="translate(11.457875, 51.065217) scale(1, -1) translate(-11.457875, -51.065217) "></path>
                </g>
                <path d="M0.471308761,53.7489538 L0.471308761,31.1900235 C0.471308761,29.2362913 2.05555484,27.6521739 4.00982142,27.6521739 C4.00982142,27.6521739 19.8528528,29.6397298 27.0099808,29.6397298 C34.8028269,29.6397298 48.8597438,27.6521739 48.8597438,27.6521739 C50.8140532,27.6521739 52.3982565,29.2361231 52.3982565,31.1900235 L52.3982565,53.7489538 C52.3982565,53.8377218 52.394986,53.9257269 52.388559,54.012855 C52.39501,54.2482563 52.3982565,54.4844578 52.3982565,54.7214175 C52.3982565,68.742217 41.0315385,80.1098911 27.0099813,80.1098911 L25.8595839,80.1098911 C11.8388106,80.1098911 0.471308761,68.7430843 0.471308761,54.7214175 C0.471308761,54.4844658 0.474555215,54.2482718 0.481006072,54.0128777 C0.474579157,53.9257427 0.471308761,53.8377301 0.471308761,53.7489538 Z" id="Rectangle-2" fill="#FF9D6E"></path>
                <path d="M0.608695652,28.6497572 C0.608695652,26.696025 2.19294173,25.1119077 4.14720831,25.1119077 C4.14720831,25.1119077 19.9902397,27.0994636 27.1473676,27.0994636 C34.9402138,27.0994636 48.9971307,25.1119077 48.9971307,25.1119077 C50.95144,25.1119077 52.5356433,26.6958569 52.5356433,28.6497572 L52.5356433,38.0869565 C48.99713,40.3584622 23.8167008,45.5198899 0.608695652,38.0869565 L0.608695652,28.6497572 Z" id="Rectangle-3" fill-opacity="0.160000667" fill="#000000"></path>
                <path d="M0.533267857,31.2584529 C0.533267857,29.3047207 2.11751394,27.7206033 4.07178051,27.7206033 C4.07178051,27.7206033 19.9148119,29.7081592 27.0719399,29.7081592 C34.864786,29.7081592 48.9217029,27.7206033 48.9217029,27.7206033 C50.8760122,27.7206033 52.4602156,29.3045525 52.4602156,31.2584529 L52.4602156,40.6956522 C48.9217022,42.9671578 23.741273,48.1285855 0.533267857,40.6956522 L0.533267857,31.2584529 Z" id="Rectangle-1" fill="#F06932"></path>
            </g>
        </g>
    </g>
</svg>